<svg width="180" height="180" viewBox="0 0 180 180" fill="none" xmlns="http://www.w3.org/2000/svg">
<g clip-path="url(#clip0_407_24)">
<rect width="180" height="180" rx="90" fill="white"/>
<path fill-rule="evenodd" clip-rule="evenodd" d="M32 0C14.3269 0 0 14.3269 0 32V148C0 165.673 14.3269 180 32 180H148C165.673 180 180 165.673 180 148V32C180 14.3269 165.673 0 148 0H32ZM60.4219 85.0321C63.1099 86.2081 66.05 86.7961 69.2419 86.7961C72.35 86.7961 75.1429 86.2291 77.6209 85.0951C80.099 83.9192 82.1989 82.4702 83.9209 80.7481C85.643 78.9841 86.8819 77.1991 87.6379 75.3931L84.6769 74.0701C83.2909 77.0101 81.2539 79.3621 78.5659 81.1261C75.9199 82.8901 72.8119 83.7721 69.2419 83.7721C65.5039 83.7721 62.1859 82.8901 59.2879 81.1261C56.4319 79.3202 54.1849 76.8211 52.5469 73.6291C50.9509 70.4372 50.1529 66.7411 50.1529 62.5411C50.1529 58.3412 50.9509 54.6661 52.5469 51.5161C54.1849 48.3242 56.4319 45.8461 59.2879 44.0821C62.1859 42.2762 65.5039 41.3731 69.2419 41.3731C72.8119 41.3731 75.9199 42.2551 78.5659 44.0191C81.2539 45.7831 83.2909 48.1352 84.6769 51.0751L87.6379 49.7521C86.8819 47.9462 85.643 46.1822 83.9209 44.4601C82.1989 42.6961 80.099 41.2471 77.6209 40.1131C75.1429 38.9372 72.35 38.3491 69.2419 38.3491C66.05 38.3491 63.1099 38.9581 60.4219 40.1761C57.734 41.3521 55.3819 43.0322 53.3659 45.2161C51.3499 47.3581 49.7749 49.9201 48.6409 52.9021C47.5489 55.8421 47.0029 59.0551 47.0029 62.5411C47.0029 66.0691 47.5489 69.3032 48.6409 72.2431C49.7749 75.1831 51.3499 77.7452 53.3659 79.9291C55.3819 82.1131 57.734 83.8141 60.4219 85.0321ZM109.063 84.717C111.457 86.103 114.208 86.796 117.316 86.796C120.466 86.796 123.217 86.103 125.569 84.717C127.921 83.331 129.748 81.399 131.05 78.921C132.394 76.4429 133.066 73.5449 133.066 70.227V39.105H129.916V70.479C129.916 73.125 129.391 75.456 128.341 77.472C127.291 79.488 125.821 81.084 123.931 82.26C122.041 83.394 119.836 83.961 117.316 83.961C114.838 83.961 112.633 83.394 110.701 82.26C108.811 81.084 107.341 79.488 106.291 77.472C105.241 75.456 104.716 73.125 104.716 70.479V39.105H101.566V70.227C101.566 73.5449 102.217 76.4429 103.519 78.921C104.863 81.399 106.711 83.331 109.063 84.717ZM46.501 144L63.889 97.0649H66.913L84.301 144H80.836L76.3 131.589H54.502L49.966 144H46.501ZM75.292 128.754L65.401 101.715L55.51 128.754H75.292ZM100.086 97.0649V144H103.236V128.817L111.678 119.43L129.57 144H133.476L113.897 117.169L132.027 97.0649H127.806L103.236 124.158V97.0649H100.086Z" fill="black"/>
</g>
<defs>
<clipPath id="clip0_407_24">
<rect width="180" height="180" fill="white"/>
</clipPath>
</defs>
</svg>
