<svg width="320" height="320" viewBox="0 0 320 320" fill="none" xmlns="http://www.w3.org/2000/svg">
<path d="M195.695 160.503C195.695 179.939 179.939 195.695 160.503 195.695C141.067 195.695 125.311 179.939 125.311 160.503C125.311 141.067 141.067 125.311 160.503 125.311C179.939 125.311 195.695 141.067 195.695 160.503Z" fill="black"/>
<path d="M144.886 65.4156C142.161 60.1513 135.935 52.5744 132.708 49.8892C107.794 29.1556 97.6701 10.1979 97.6701 10.1979C97.6701 10.1979 104.049 30.7161 101.31 62.9472C100.949 67.1183 101.967 76.868 103.8 82.4926C112.732 109.92 142.95 118.414 142.95 118.414C142.95 118.414 158.156 91.031 144.886 65.4156Z" fill="black"/>
<path d="M175.114 254.584C177.839 259.849 184.065 267.426 187.292 270.111C212.206 290.844 222.33 309.802 222.33 309.802C222.33 309.802 215.951 289.284 218.69 257.053C219.051 252.882 218.033 243.132 216.2 237.507C207.268 210.08 177.05 201.586 177.05 201.586C177.05 201.586 161.845 228.969 175.114 254.584Z" fill="black"/>
<path d="M65.4155 175.114C60.1513 177.839 52.5744 184.065 49.8892 187.292C29.1556 212.206 10.1978 222.33 10.1978 222.33C10.1978 222.33 30.7161 215.951 62.9471 218.69C67.1183 219.051 76.8679 218.033 82.4926 216.2C109.92 207.268 118.414 177.05 118.414 177.05C118.414 177.05 91.0309 161.844 65.4155 175.114Z" fill="black"/>
<path d="M254.584 144.886C259.849 142.161 267.426 135.935 270.111 132.708C290.844 107.794 309.802 97.67 309.802 97.67C309.802 97.67 289.284 104.049 257.053 101.31C252.882 100.949 243.132 101.967 237.507 103.8C210.08 112.732 201.586 142.95 201.586 142.95C201.586 142.95 228.969 158.155 254.584 144.886Z" fill="black"/>
<path d="M82.4317 103.806C76.7825 102.01 67.022 101.055 62.8415 101.438C30.564 104.394 10 98.1478 10 98.1478C10 98.1478 29.0193 108.146 49.873 132.874C52.5674 136.078 60.1815 142.252 65.4545 144.933C91.1645 158.012 118.538 142.65 118.538 142.65C118.538 142.65 109.927 112.536 82.4317 103.806Z" fill="black"/>
<path d="M237.568 216.194C243.217 217.99 252.978 218.945 257.158 218.562C289.436 215.606 310 221.852 310 221.852C310 221.852 290.981 211.854 270.127 187.126C267.433 183.922 259.819 177.748 254.545 175.067C228.836 161.988 201.462 177.349 201.462 177.349C201.462 177.349 210.073 207.464 237.568 216.194Z" fill="black"/>
<path d="M103.806 237.568C102.01 243.217 101.055 252.978 101.438 257.158C104.394 289.436 98.1478 310 98.1478 310C98.1478 310 108.146 290.981 132.874 270.127C136.078 267.433 142.252 259.818 144.933 254.545C158.012 228.835 142.651 201.462 142.651 201.462C142.651 201.462 112.536 210.073 103.806 237.568Z" fill="black"/>
<path d="M216.194 82.4317C217.99 76.7825 218.945 67.022 218.562 62.8415C215.606 30.564 221.852 10 221.852 10C221.852 10 211.854 29.0193 187.126 49.873C183.922 52.5674 177.748 60.1815 175.067 65.4545C161.988 91.1645 177.349 118.538 177.349 118.538C177.349 118.538 207.464 109.927 216.194 82.4317Z" fill="black"/>
</svg>
